<svg id="Layer_1" enable-background="new 0 0 510.822 510.822" height="512" viewBox="0 0 510.822 510.822" width="512" xmlns="http://www.w3.org/2000/svg"><path d="m507.523 252.362-77.178-100.737c-3.028-3.952-7.723-6.27-12.701-6.27h-97.827v-65.113c0-8.836-7.163-16-16-16h-287.817c-8.837 0-16 7.164-16 16v300.906c0 8.836 7.163 16 16 16h55.448c7.158 28.37 32.886 49.433 63.447 49.433s56.289-21.063 63.446-49.433h137.531c7.158 28.37 32.886 49.433 63.447 49.433s56.289-21.063 63.446-49.433h32.056c8.837 0 16-7.164 16-16v-119.055c.001-3.518-1.158-6.938-3.298-9.731zm-372.627 162.219c-18.436 0-33.434-14.998-33.434-33.433s14.998-33.433 33.434-33.433c18.435 0 33.433 14.998 33.433 33.433s-14.999 33.433-33.433 33.433zm0-98.866c-30.562 0-56.29 21.063-63.447 49.433h-39.449v-268.906h255.817v268.906h-89.476c-7.157-28.37-32.884-49.433-63.445-49.433zm264.424 98.866c-18.436 0-33.434-14.998-33.434-33.433s14.998-33.433 33.434-33.433c18.435 0 33.433 14.998 33.433 33.433s-14.998 33.433-33.433 33.433zm79.502-49.433h-16.056c-7.157-28.37-32.885-49.433-63.446-49.433s-56.29 21.063-63.447 49.433h-16.056v-187.793h89.93l69.075 90.162z"/></svg>